# xmcd
#
# Track frame offsets: 
#        150
#        17548
#        42392
#        65317
#        85439
#        107009
#        125943
#        146150
#        163988
#        183323
#        200671
#        226041
#        255716
#        280373
#        314881
#
# Disc length: 4439 seconds
#
# Revision: 0
# Processed by: cddbd v1.5.2PL0 Copyright (c) Steve Scherf et al.
# Submitted via: ExactAudioCopy v0.95b4
#
DISCID=e611550f
DTITLE=Various Artist - Don´s Black Vol 15
DYEAR=1900
DGENRE=
TTITLE0=Bran van 2000 - Afrodiziak
TTITLE1=na - na
TTITLE2=Club Niveau - Why you treat me so bad
TTITLE3=Arrested Development - Tennesse
TTITLE4=N´Sync - Tearing up my heart
TTITLE5=Culture Beat - Tell me that you wait
TTITLE6=Marky Mark - Good vibrations
TTITLE7=Blackstreet, Mya, Blinky - Take me there
TTITLE8=John Secada - Just another day
TTITLE9=Garland Heffreys - Hail, Hail, Rock´n Roll
TTITLE10=Michael Jackson - Jam
TTITLE11=Michael Jackson - Who is it
TTITLE12=Michael Jackson - Give in to me
TTITLE13=Michael Jackson - Will you be there
TTITLE14=Echt - Wo bist du jetzt (BMP +16)
EXTD=
EXTT0=
EXTT1=
EXTT2=
EXTT3=
EXTT4=
EXTT5=
EXTT6=
EXTT7=
EXTT8=
EXTT9=
EXTT10=
EXTT11=
EXTT12=
EXTT13=
EXTT14=
PLAYORDER=
